<?xml version="1.0" encoding="UTF-8" standalone="no"?>
<!-- Created with Inkscape (http://www.inkscape.org/) -->

<svg
   xmlns:dc="http://purl.org/dc/elements/1.1/"
   xmlns:cc="http://creativecommons.org/ns#"
   xmlns:rdf="http://www.w3.org/1999/02/22-rdf-syntax-ns#"
   xmlns:svg="http://www.w3.org/2000/svg"
   xmlns="http://www.w3.org/2000/svg"
   xmlns:sodipodi="http://sodipodi.sourceforge.net/DTD/sodipodi-0.dtd"
   xmlns:inkscape="http://www.inkscape.org/namespaces/inkscape"
   width="280pt"
   height="80pt"
   viewBox="0 0 98.777778 28.222222"
   version="1.1"
   id="svg1656"
   inkscape:version="0.92.4 (5da689c313, 2019-01-14)"
   sodipodi:docname="logo.imag.svg">
  <defs
     id="defs1650" />
  <sodipodi:namedview
     id="base"
     pagecolor="#ffffff"
     bordercolor="#666666"
     borderopacity="1.0"
     inkscape:pageopacity="0.0"
     inkscape:pageshadow="2"
     inkscape:zoom="1.979899"
     inkscape:cx="186.96966"
     inkscape:cy="94.000233"
     inkscape:document-units="mm"
     inkscape:current-layer="layer1"
     showgrid="false"
     units="pt"
     inkscape:window-width="1920"
     inkscape:window-height="1001"
     inkscape:window-x="-9"
     inkscape:window-y="-9"
     inkscape:window-maximized="1" />
  <metadata
     id="metadata1653">
    <rdf:RDF>
      <cc:Work
         rdf:about="">
        <dc:format>image/svg+xml</dc:format>
        <dc:type
           rdf:resource="http://purl.org/dc/dcmitype/StillImage" />
        <dc:title></dc:title>
      </cc:Work>
    </rdf:RDF>
  </metadata>
  <g
     inkscape:label="レイヤー 1"
     inkscape:groupmode="layer"
     id="layer1"
     transform="translate(0,-268.77778)">
    <path
       inkscape:connector-curvature="0"
       style="opacity:1;fill:#8dd35f;fill-opacity:0.58823529;stroke:none;stroke-width:0.24697861;stroke-linecap:round;stroke-miterlimit:4;stroke-dasharray:none;stroke-dashoffset:0;stroke-opacity:1"
       d="m 97.536169,270.26757 a 1.5149812,1.5149812 0 0 0 -2.1011,-0.41951 1.5149812,1.5149812 0 0 0 -0.0567,0.0411 l -3e-4,-9.2e-4 -3.3993,2.268 a 1.5149812,1.5149812 0 0 0 -0.0283,0.0168 1.5149812,1.5149812 0 0 0 -0.41935,2.10115 1.5149812,1.5149812 0 0 0 2.10103,0.41939 1.5149812,1.5149812 0 0 0 0.0378,-0.0272 l 3.38792,-2.26043 -9.2e-4,-9.2e-4 a 1.5149812,1.5149812 0 0 0 0.0599,-0.036 1.5149812,1.5149812 0 0 0 0.41941,-2.10105 z"
       id="rect1127-5-0" />
    <path
       inkscape:connector-curvature="0"
       style="opacity:1;fill:#2ca02c;fill-opacity:0.60784314;stroke:none;stroke-width:0.24697861;stroke-linecap:round;stroke-miterlimit:4;stroke-dasharray:none;stroke-dashoffset:0;stroke-opacity:1"
       d="m 88.166769,270.04769 a 1.5149812,1.5149812 0 0 0 0.32441,2.11787 1.5149812,1.5149812 0 0 0 0.0579,0.0393 l -6.2e-4,5.1e-4 3.29388,2.41859 a 1.5149812,1.5149812 0 0 0 0.0255,0.0209 1.5149812,1.5149812 0 0 0 2.11785,-0.32461 1.5149812,1.5149812 0 0 0 -0.32451,-2.11775 1.5149812,1.5149812 0 0 0 -0.0384,-0.026 l -3.28283,-2.41052 -9.3e-4,9.3e-4 a 1.5149812,1.5149812 0 0 0 -0.0542,-0.0443 1.5149812,1.5149812 0 0 0 -2.11778,0.3245 z"
       id="rect1127-0-1" />
    <g
       transform="matrix(0.63864427,0,0,0.63864427,187.25859,-277.01985)"
       aria-label="Health Seed"
       style="font-style:normal;font-weight:normal;font-size:22.28908157px;line-height:1.25;font-family:sans-serif;letter-spacing:0px;word-spacing:0px;fill:#000000;fill-opacity:1;stroke:none;stroke-width:0.55722702"
       id="text1027-72">
      <path
         inkscape:connector-curvature="0"
         d="m -287.99597,873.01687 v 6.59531 q 0,0.31561 -0.20678,0.54416 -0.27209,0.30474 -0.75095,0.30474 -0.54417,0 -0.82714,-0.3918 -0.1306,-0.18502 -0.1306,-0.4571 v -14.20276 q 0,-0.27209 0.1306,-0.46799 0.27209,-0.40268 0.82714,-0.40268 0.55505,0 0.81625,0.40268 0.14148,0.1959 0.14148,0.46799 v 5.90965 h 8.82639 v -5.90965 q 0,-0.27209 0.1306,-0.46799 0.27208,-0.40268 0.82713,-0.40268 0.55506,0 0.81626,0.40268 0.14148,0.1959 0.14148,0.46799 v 14.20276 q 0,0.31561 -0.20678,0.54416 -0.27209,0.30474 -0.75096,0.30474 -0.54416,0 -0.82713,-0.3918 -0.1306,-0.18502 -0.1306,-0.4571 v -6.59531 z"
         style="font-style:normal;font-variant:normal;font-weight:normal;font-stretch:normal;font-family:'UD Digi Kyokasho NK-R';-inkscape-font-specification:'UD Digi Kyokasho NK-R';letter-spacing:1.32291663px;fill:#363636;stroke-width:0.55722702"
         id="path1283" />
      <path
         inkscape:connector-curvature="0"
         d="m -270.84868,875.37856 q 0.0435,1.20805 0.63124,2.06783 1.06657,1.53455 3.07998,1.53455 1.86105,0 3.24324,-1.1754 0.35915,-0.30473 0.7183,-0.30473 0.35915,0 0.63123,0.27208 0.2612,0.27209 0.2612,0.64212 0,0.47887 -0.60946,0.96862 -1.61074,1.27335 -4.25539,1.27335 -1.8937,0 -3.28677,-0.94685 -1.36042,-0.9142 -1.96988,-2.4814 -0.40269,-1.03392 -0.40269,-2.22021 0,-2.17666 1.306,-3.71121 1.61074,-1.87194 4.26627,-1.87194 2.17667,0 3.72211,1.42572 1.49101,1.3713 1.49101,3.23235 0,1.29512 -1.13186,1.29512 z m 0.0871,-1.46925 h 6.35587 q 0.34827,0 0.34827,-0.29385 0,-0.43534 -0.37004,-1.06657 -0.88155,-1.46925 -2.82966,-1.46925 -1.62162,0 -2.65554,1.06657 -0.70742,0.7183 -0.8489,1.7631 z"
         style="font-style:normal;font-variant:normal;font-weight:normal;font-stretch:normal;font-family:'UD Digi Kyokasho NK-R';-inkscape-font-specification:'UD Digi Kyokasho NK-R';letter-spacing:1.32291663px;fill:#363636;stroke-width:0.55722702"
         id="path1285" />
      <path
         inkscape:connector-curvature="0"
         d="m -249.55483,871.25377 v -1.02303 q 0,-0.3265 0.20679,-0.54417 0.2612,-0.28297 0.69653,-0.28297 0.59858,0 0.82713,0.4571 0.0762,0.16325 0.0762,0.37004 v 9.44674 q 0,0.7836 -0.79449,0.7836 -0.70741,0 -0.76183,-0.74007 l -0.14148,-1.59985 q -0.7836,1.59985 -2.33992,2.24197 -0.69654,0.29385 -1.45837,0.29385 -2.42699,0 -3.84182,-1.75222 -1.25158,-1.54543 -1.25158,-3.89624 0,-1.959 1.00126,-3.42825 1.48014,-2.1549 4.07037,-2.1549 2.1549,0 3.71122,1.8284 z m 0,3.95065 v -0.76183 q 0,-0.9142 -0.54416,-1.74133 -0.69654,-1.0448 -1.89371,-1.42572 -0.54416,-0.17413 -1.09921,-0.17413 -1.46925,0 -2.40522,1.09921 -0.94685,1.09922 -0.94685,2.81879 0,1.55632 0.79448,2.64465 0.95774,1.31688 2.55759,1.31688 1.44748,0 2.53581,-1.28423 1.00127,-1.18628 1.00127,-2.49229 z"
         style="font-style:normal;font-variant:normal;font-weight:normal;font-stretch:normal;font-family:'UD Digi Kyokasho NK-R';-inkscape-font-specification:'UD Digi Kyokasho NK-R';letter-spacing:1.32291663px;fill:#363636;stroke-width:0.55722702"
         id="path1287" />
      <path
         inkscape:connector-curvature="0"
         d="m -240.50474,865.38765 v 14.22453 q 0,0.31561 -0.20679,0.54416 -0.27208,0.30474 -0.75095,0.30474 -0.54416,0 -0.82713,-0.3918 -0.1306,-0.18502 -0.1306,-0.4571 v -14.22453 q 0,-0.41357 0.33738,-0.653 0.2612,-0.18502 0.62035,-0.18502 0.41357,0 0.68565,0.23944 0.27209,0.22855 0.27209,0.59858 z"
         style="font-style:normal;font-variant:normal;font-weight:normal;font-stretch:normal;font-family:'UD Digi Kyokasho NK-R';-inkscape-font-specification:'UD Digi Kyokasho NK-R';letter-spacing:1.32291663px;fill:#363636;stroke-width:0.55722702"
         id="path1289" />
      <path
         inkscape:connector-curvature="0"
         d="m -233.1851,869.78452 v -2.612 q 0,-0.37003 0.25032,-0.59858 0.2612,-0.2612 0.69653,-0.2612 0.62035,0 0.8489,0.48975 0.0762,0.16325 0.0762,0.37003 v 2.612 h 2.49229 q 0.3265,0 0.5224,0.20678 0.23943,0.23944 0.23943,0.62035 0,0.51152 -0.37003,0.75096 -0.17413,0.0979 -0.3918,0.0979 h -2.49229 v 8.14073 q 0,0.35915 -0.25031,0.59859 -0.2612,0.2612 -0.68565,0.2612 -0.63124,0 -0.85979,-0.48975 -0.0762,-0.16325 -0.0762,-0.37004 v -8.14073 h -2.49229 q -0.20678,0 -0.35915,-0.0871 -0.40268,-0.21767 -0.40268,-0.76184 0,-0.44621 0.31562,-0.68565 0.17413,-0.14148 0.44621,-0.14148 z"
         style="font-style:normal;font-variant:normal;font-weight:normal;font-stretch:normal;font-family:'UD Digi Kyokasho NK-R';-inkscape-font-specification:'UD Digi Kyokasho NK-R';letter-spacing:1.32291663px;fill:#363636;stroke-width:0.55722702"
         id="path1291" />
      <path
         inkscape:connector-curvature="0"
         d="m -222.35015,871.38437 q 0.60947,-0.76183 1.41484,-1.25158 1.16451,-0.70742 2.4161,-0.70742 1.96988,0 2.99292,1.5019 0.72918,1.07745 0.72918,2.70995 v 5.97496 q 0,0.35915 -0.25032,0.59858 -0.27208,0.25032 -0.69653,0.25032 -0.54417,0 -0.81625,-0.3918 -0.1306,-0.1959 -0.1306,-0.4571 v -5.65934 q 0,-2.85143 -2.06784,-2.85143 -1.26246,0 -2.4161,1.08833 -1.1754,1.12098 -1.1754,2.38345 v 5.03899 q 0,0.35915 -0.25031,0.59858 -0.2612,0.25032 -0.69654,0.25032 -0.55505,0 -0.81625,-0.3918 -0.1306,-0.18502 -0.1306,-0.4571 v -14.2463 q 0,-0.30473 0.1959,-0.51151 0.27208,-0.30474 0.76183,-0.30474 0.55506,0 0.81626,0.3918 0.11971,0.18502 0.11971,0.42445 z"
         style="font-style:normal;font-variant:normal;font-weight:normal;font-stretch:normal;font-family:'UD Digi Kyokasho NK-R';-inkscape-font-specification:'UD Digi Kyokasho NK-R';letter-spacing:1.32291663px;fill:#363636;stroke-width:0.55722702"
         id="path1293" />
      <path
         inkscape:connector-curvature="0"
         d="m -196.35955,864.34285 q 2.69907,0 4.51659,1.4366 0.76183,0.59859 0.76183,1.12099 0,0.35915 -0.25031,0.63123 -0.29385,0.3265 -0.74007,0.3265 -0.38092,0 -0.66389,-0.28297 -1.52366,-1.53455 -3.60238,-1.53455 -1.22982,0 -2.11137,0.38092 -1.49102,0.63123 -1.49102,2.0243 0,0.99038 0.99039,1.65427 0.77271,0.5224 3.21058,1.22982 2.5467,0.72918 3.67857,1.40395 1.96989,1.16451 1.96989,3.37383 0,2.30727 -1.91547,3.54797 -1.57809,1.02304 -4.08125,1.02304 -3.03646,0 -5.09341,-1.68692 -0.9795,-0.80537 -0.9795,-1.39307 0,-0.29385 0.1959,-0.55505 0.2612,-0.34827 0.70742,-0.34827 0.43533,0 1.07745,0.64212 0.68565,0.68565 1.78487,1.14275 1.09921,0.4571 2.3508,0.4571 1.61073,0 2.6773,-0.59858 1.38218,-0.77272 1.38218,-2.20932 0,-1.28424 -1.18628,-1.93724 -0.94685,-0.5224 -3.60239,-1.33865 -2.20931,-0.67476 -3.47178,-1.48013 -1.5672,-1.00127 -1.5672,-2.89497 0,-2.2202 2.14402,-3.38472 1.38218,-0.75095 3.30853,-0.75095 z"
         style="font-style:normal;font-variant:normal;font-weight:normal;font-stretch:normal;font-family:'UD Digi Kyokasho NK-R';-inkscape-font-specification:'UD Digi Kyokasho NK-R';letter-spacing:1.32291663px;fill:#363636;stroke-width:0.55722702"
         id="path1295" />
      <path
         inkscape:connector-curvature="0"
         d="m -184.62127,875.37856 q 0.0435,1.20805 0.63123,2.06783 1.06657,1.53455 3.07998,1.53455 1.86106,0 3.24324,-1.1754 0.35915,-0.30473 0.7183,-0.30473 0.35915,0 0.63123,0.27208 0.2612,0.27209 0.2612,0.64212 0,0.47887 -0.60946,0.96862 -1.61074,1.27335 -4.25539,1.27335 -1.8937,0 -3.28677,-0.94685 -1.36041,-0.9142 -1.96988,-2.4814 -0.40269,-1.03392 -0.40269,-2.22021 0,-2.17666 1.30601,-3.71121 1.61073,-1.87194 4.26626,-1.87194 2.17667,0 3.72211,1.42572 1.49102,1.3713 1.49102,3.23235 0,1.29512 -1.13187,1.29512 z m 0.0871,-1.46925 h 6.35587 q 0.34827,0 0.34827,-0.29385 0,-0.43534 -0.37003,-1.06657 -0.88155,-1.46925 -2.82967,-1.46925 -1.62162,0 -2.65554,1.06657 -0.70741,0.7183 -0.8489,1.7631 z"
         style="font-style:normal;font-variant:normal;font-weight:normal;font-stretch:normal;font-family:'UD Digi Kyokasho NK-R';-inkscape-font-specification:'UD Digi Kyokasho NK-R';letter-spacing:1.32291663px;fill:#363636;stroke-width:0.55722702"
         id="path1297" />
      <path
         inkscape:connector-curvature="0"
         d="m -170.15128,875.37856 q 0.0435,1.20805 0.63123,2.06783 1.06657,1.53455 3.07999,1.53455 1.86105,0 3.24323,-1.1754 0.35915,-0.30473 0.7183,-0.30473 0.35915,0 0.63124,0.27208 0.2612,0.27209 0.2612,0.64212 0,0.47887 -0.60947,0.96862 -1.61073,1.27335 -4.25538,1.27335 -1.89371,0 -3.28677,-0.94685 -1.36042,-0.9142 -1.96989,-2.4814 -0.40268,-1.03392 -0.40268,-2.22021 0,-2.17666 1.306,-3.71121 1.61073,-1.87194 4.26627,-1.87194 2.17667,0 3.7221,1.42572 1.49102,1.3713 1.49102,3.23235 0,1.29512 -1.13187,1.29512 z m 0.0871,-1.46925 h 6.35587 q 0.34826,0 0.34826,-0.29385 0,-0.43534 -0.37003,-1.06657 -0.88155,-1.46925 -2.82967,-1.46925 -1.62162,0 -2.65553,1.06657 -0.70742,0.7183 -0.8489,1.7631 z"
         style="font-style:normal;font-variant:normal;font-weight:normal;font-stretch:normal;font-family:'UD Digi Kyokasho NK-R';-inkscape-font-specification:'UD Digi Kyokasho NK-R';letter-spacing:1.32291663px;fill:#363636;stroke-width:0.55722702"
         id="path1299" />
      <path
         d="m -148.90097,871.25377 v -5.86612 c 0,-0.15237 0.0363,-0.28659 0.10883,-0.40268 0.16688,-0.29023 0.44259,-0.43534 0.82713,-0.43534 0.34101,0 0.60221,0.11972 0.7836,0.35915 0.10158,0.1306 0.15237,0.29022 0.15237,0.47887 v 14.28983 c 0,0.5224 -0.26483,0.7836 -0.79448,0.7836 -0.47161,0 -0.72556,-0.24669 -0.76184,-0.74007 l -0.14148,-1.59985 c -0.5224,1.06657 -1.30237,1.81389 -2.33992,2.24197 -0.46435,0.1959 -0.95048,0.29385 -1.45837,0.29385 -1.61799,0 -2.89859,-0.58407 -3.84182,-1.75222 -0.83439,-1.03029 -1.25158,-2.32903 -1.25158,-3.89624 0,-1.306 0.33376,-2.44875 1.00127,-3.42825 0.98675,-1.4366 2.34354,-2.1549 4.07037,-2.1549 1.45837,0 2.67367,0.60947 3.64592,1.8284 z"
         style="font-style:normal;font-variant:normal;font-weight:normal;font-stretch:normal;font-family:'UD Digi Kyokasho NK-R';-inkscape-font-specification:'UD Digi Kyokasho NK-R';letter-spacing:1.32291663px;fill:#363636;stroke-width:0.55722702"
         id="path1301"
         inkscape:connector-curvature="0"
         sodipodi:nodetypes="cscscssscccscscsc" />
    </g>
    <text
       xml:space="preserve"
       style="font-style:normal;font-variant:normal;font-weight:normal;font-stretch:normal;font-size:6.75898504px;line-height:1.25;font-family:'UD Digi Kyokasho N-R';-inkscape-font-specification:'UD Digi Kyokasho N-R, Normal';font-variant-ligatures:normal;font-variant-caps:normal;font-variant-numeric:normal;font-feature-settings:normal;text-align:start;letter-spacing:0px;word-spacing:0px;writing-mode:lr-tb;text-anchor:start;fill:#828282;fill-opacity:1;stroke:none;stroke-width:0.16897461"
       x="11.518051"
       y="295.26913"
       id="text977-3"><tspan
         sodipodi:role="line"
         id="tspan975-5"
         x="11.518051"
         y="295.26913"
         style="font-style:normal;font-variant:normal;font-weight:normal;font-stretch:normal;font-size:6.75898504px;font-family:'UD Digi Kyokasho N-R';-inkscape-font-specification:'UD Digi Kyokasho N-R, Normal';font-variant-ligatures:normal;font-variant-caps:normal;font-variant-numeric:normal;font-feature-settings:normal;text-align:start;writing-mode:lr-tb;text-anchor:start;fill:#828282;fill-opacity:1;stroke-width:0.16897461">健康商品ポータルサイト</tspan></text>
    <path
       id="path1343"
       d="m 91.993279,281.66966 c 0,1.38724 -2.27392,2.51183 -2.27392,2.51183 0,0 -2.273919,-1.12459 -2.273919,-2.51183 0,-1.38724 1.515949,-2.0932 2.273919,-0.83727 0.75798,-1.25593 2.27392,-0.54997 2.27392,0.83727 z"
       class="9b26c6de-f18e-40d4-9133-6efb7c83bde6"
       inkscape:connector-curvature="0"
       style="fill:#ffffff;stroke:#000000;stroke-width:0.03734247px;stroke-miterlimit:10" />
    <text
       xml:space="preserve"
       style="font-style:normal;font-variant:normal;font-weight:normal;font-stretch:normal;font-size:6.75898504px;line-height:1.25;font-family:'UD Digi Kyokasho N-R';-inkscape-font-specification:'UD Digi Kyokasho N-R, Normal';font-variant-ligatures:normal;font-variant-caps:normal;font-variant-numeric:normal;font-feature-settings:normal;text-align:start;letter-spacing:0px;word-spacing:0px;writing-mode:lr-tb;text-anchor:start;fill:#828282;fill-opacity:1;stroke:none;stroke-width:0.16897461"
       x="5.904417"
       y="295.15363"
       id="text977-3-5"><tspan
         sodipodi:role="line"
         id="tspan975-5-8"
         x="5.904417"
         y="295.15363"
         style="font-style:normal;font-variant:normal;font-weight:normal;font-stretch:normal;font-size:6.75898504px;font-family:'UD Digi Kyokasho N-R';-inkscape-font-specification:'UD Digi Kyokasho N-R, Normal';font-variant-ligatures:normal;font-variant-caps:normal;font-variant-numeric:normal;font-feature-settings:normal;text-align:start;writing-mode:lr-tb;text-anchor:start;fill:#828282;fill-opacity:1;stroke-width:0.16897461">-</tspan></text>
    <text
       xml:space="preserve"
       style="font-style:normal;font-variant:normal;font-weight:normal;font-stretch:normal;font-size:6.75898504px;line-height:1.25;font-family:'UD Digi Kyokasho N-R';-inkscape-font-specification:'UD Digi Kyokasho N-R, Normal';font-variant-ligatures:normal;font-variant-caps:normal;font-variant-numeric:normal;font-feature-settings:normal;text-align:start;letter-spacing:0px;word-spacing:0px;writing-mode:lr-tb;text-anchor:start;fill:#828282;fill-opacity:1;stroke:none;stroke-width:0.16897461"
       x="87.507339"
       y="295.15363"
       id="text977-3-5-0"><tspan
         sodipodi:role="line"
         id="tspan975-5-8-5"
         x="87.507339"
         y="295.15363"
         style="font-style:normal;font-variant:normal;font-weight:normal;font-stretch:normal;font-size:6.75898504px;font-family:'UD Digi Kyokasho N-R';-inkscape-font-specification:'UD Digi Kyokasho N-R, Normal';font-variant-ligatures:normal;font-variant-caps:normal;font-variant-numeric:normal;font-feature-settings:normal;text-align:start;writing-mode:lr-tb;text-anchor:start;fill:#828282;fill-opacity:1;stroke-width:0.16897461">-</tspan></text>
  </g>
</svg>
